<?xml version="1.0" encoding="UTF-8" standalone="no"?>
<!-- Created with Inkscape (http://www.inkscape.org/) -->
<svg
   xmlns:dc="http://purl.org/dc/elements/1.1/"
   xmlns:cc="http://web.resource.org/cc/"
   xmlns:rdf="http://www.w3.org/1999/02/22-rdf-syntax-ns#"
   xmlns:svg="http://www.w3.org/2000/svg"
   xmlns="http://www.w3.org/2000/svg"
   xmlns:sodipodi="http://inkscape.sourceforge.net/DTD/sodipodi-0.dtd"
   xmlns:inkscape="http://www.inkscape.org/namespaces/inkscape"
   width="365.62pt"
   height="172.15601pt"
   id="svg2"
   sodipodi:version="0.32"
   inkscape:version="0.43"
   version="1.0"
   sodipodi:docbase="/mnt/hdb1/Docs/Weiji/-Yuyanxue/Zhongwen Ziti/xin"
   sodipodi:docname="kaitif.svg">
  <defs
     id="defs4" />
  <sodipodi:namedview
     id="base"
     pagecolor="#ffffff"
     bordercolor="#666666"
     borderopacity="1.0"
     inkscape:pageopacity="1"
     inkscape:pageshadow="2"
     inkscape:zoom="0.98994949"
     inkscape:cx="456.30532"
     inkscape:cy="165.69573"
     inkscape:document-units="px"
     inkscape:current-layer="layer1"
     inkscape:window-width="1016"
     inkscape:window-height="681"
     inkscape:window-x="0"
     inkscape:window-y="0" />
  <metadata
     id="metadata7">
    <rdf:RDF>
      <cc:Work
         rdf:about="">
        <dc:format>image/svg+xml</dc:format>
        <dc:type
           rdf:resource="http://purl.org/dc/dcmitype/StillImage" />
      </cc:Work>
    </rdf:RDF>
  </metadata>
  <g
     inkscape:label="Layer 1"
     inkscape:groupmode="layer"
     id="layer1">
    <path
       style="font-size:240px;font-style:normal;font-variant:normal;font-weight:normal;font-stretch:normal;text-align:start;line-height:100%;writing-mode:lr-tb;text-anchor:start;fill:#000000;fill-opacity:1;stroke:none;stroke-width:1px;stroke-linecap:butt;stroke-linejoin:miter;stroke-opacity:1;font-family:FZPangTouYu-M24S"
       d="M 60,112.03095 C 59.531179,121.71851 59.218679,128.906 59.0625,133.59345 C 59.062429,138.12474 58.984304,144.92161 58.828125,153.98408 C 58.828054,163.04659 58.828054,169.60908 58.828125,173.67158 L 58.359375,187.4997 C 58.203055,192.34344 57.81243,195.93718 57.1875,198.28095 C 56.718682,200.78093 55.937432,202.96843 54.84375,204.84345 C 53.749935,206.87467 52.734311,207.81217 51.796875,207.65595 C 49.453064,207.34342 47.343691,204.21842 45.46875,198.28095 C 43.749945,192.34344 42.812445,189.29656 42.65625,189.14032 C 42.656196,188.98407 42.734321,188.43719 42.890625,187.4997 L 42.890625,186.5622 C 42.89057,185.31219 43.437445,182.4997 44.53125,178.1247 C 45.624943,173.59346 46.640567,165.85909 47.578125,154.92158 L 48.75,135.70282 L 50.15625,112.4997 C 42.031196,124.2185 34.921828,133.43725 28.828125,140.15595 C 22.734341,146.87473 15.546848,152.49973 7.265625,157.03095 L 3.046875,159.3747 C 1.328112,160.46847 0.3906129,160.70284 0.234375,160.07782 C 0.0781132,159.45284 -1.17e-05,158.90597 0,158.4372 L 0,157.96845 C -1.17e-05,157.49972 0.234363,157.03097 0.703125,156.5622 L 5.625,151.64032 C 11.562477,145.70286 18.28122,137.81224 25.78125,127.96845 C 33.437455,117.96851 39.999948,104.92165 45.46875,88.827823 C 37.031201,91.640413 29.296834,92.968543 22.265625,92.812203 C 17.109346,92.812293 13.437475,92.187293 11.25,90.937203 C 9.062479,89.687293 8.046855,88.671673 8.203125,87.890323 C 8.203105,87.109173 8.906229,86.484173 10.3125,86.015323 L 28.359375,80.390328 C 35.859327,78.046679 43.828069,75.234182 52.265625,71.952828 C 52.734311,64.609192 53.04681,58.827948 53.203125,54.609078 C 53.35931,50.390457 53.437435,46.249836 53.4375,42.187203 C 53.281185,36.406096 52.968685,31.406101 52.5,27.187203 C 52.031186,22.968609 51.484312,20.077987 50.859375,18.515328 C 50.390563,16.95299 49.843688,15.546742 49.21875,14.296578 C 48.59369,13.046744 48.046815,11.952995 47.578125,11.015328 C 47.265566,10.077997 47.187441,9.3748734 47.34375,8.9059534 C 47.343691,8.9061234 47.421816,8.6717484 47.578125,8.2028284 L 48.046875,6.7965784 C 48.515565,6.1717514 49.687439,5.8592514 51.5625,5.8590784 C 52.499936,6.0155014 54.687434,6.7186254 58.125,7.9684534 C 61.562427,9.0623734 64.453049,10.624871 66.796875,12.655953 C 69.296794,14.531118 70.546793,16.171741 70.546875,17.577828 C 70.390543,18.046739 70.234293,18.515489 70.078125,18.984078 C 70.078043,19.296738 69.687419,20.156112 68.90625,21.562203 C 68.28117,22.812359 67.734296,24.296733 67.265625,26.015328 C 66.953046,27.734229 66.406172,32.0311 65.625,38.905953 C 64.843673,45.781086 64.453049,49.843582 64.453125,51.093453 L 63.046875,68.437203 C 68.203045,66.874815 71.562417,66.015441 73.125,65.859078 C 74.687414,65.859191 76.093662,66.171691 77.34375,66.796578 C 78.59366,67.26544 79.374909,67.734189 79.6875,68.202828 C 79.999908,68.671688 80.156158,69.218563 80.15625,69.843453 C 80.312408,70.312312 80.156158,70.937311 79.6875,71.718453 C 77.81241,74.687307 71.796791,78.437304 61.640625,82.968453 C 61.484302,87.968543 61.406177,90.937293 61.40625,91.874703 L 60.9375,100.78095 C 72.499916,103.59353 78.28116,108.59352 78.28125,115.78095 C 78.12491,120.15601 76.484287,122.26538 73.359375,122.10908 C 70.234293,122.10913 65.781172,118.74976 60,112.03095 M 107.34375,61.640328 C 109.84363,60.702946 111.56238,59.999822 112.5,59.530953 C 113.59362,58.906073 116.40612,57.26545 120.9375,54.609078 C 125.46861,51.796705 129.37486,50.390457 132.65625,50.390328 C 135.62485,50.546707 137.42173,51.249831 138.04687,52.499703 C 138.67172,53.749828 138.98422,54.452953 138.98437,54.609078 C 138.82797,54.921702 138.43735,55.937326 137.8125,57.655953 C 137.18735,59.374823 133.67173,61.87482 127.26563,65.155953 C 121.01549,68.437314 114.29675,69.531063 107.10937,68.437203 L 107.10937,84.843453 L 107.10937,99.374703 C 110.23425,97.499783 113.28113,95.546663 116.25,93.515323 C 119.37487,91.484163 121.64049,90.077913 123.04687,89.296583 L 129.14063,85.780953 C 131.32798,84.531043 132.49986,84.452923 132.65625,85.546583 C 132.96861,86.640423 132.73423,87.577923 131.95313,88.359083 L 126.79687,93.280953 C 119.76549,99.999783 113.90612,105.78102 109.21875,110.6247 C 104.53113,115.31226 101.09364,119.14038 98.90625,122.10908 C 96.874891,124.92163 95.312393,126.24975 94.21875,126.09345 C 93.281145,126.0935 92.109271,125.156 90.703125,123.28095 C 89.453024,121.24976 88.671775,119.06226 88.359375,116.71845 C 88.046775,114.21851 87.8124,112.49977 87.65625,111.5622 C 87.656151,110.62477 87.734276,109.99977 87.890625,109.6872 C 87.890525,109.21852 88.046775,108.74977 88.359375,108.28095 C 88.671775,107.81227 89.609274,106.48415 91.171875,104.29658 C 92.89052,101.9529 94.140519,99.531033 94.921875,97.030953 C 95.703018,94.374783 96.093642,91.406043 96.09375,88.124703 C 96.249892,84.687293 96.328017,81.796675 96.328125,79.452828 C 96.171767,75.546682 95.937392,71.87481 95.625,68.437203 C 95.312393,64.843567 94.843643,61.952945 94.21875,59.765328 C 93.593645,57.577949 92.812395,55.781076 91.875,54.374703 C 90.937397,52.812329 89.999898,51.484206 89.0625,50.390328 C 88.28115,49.140458 87.8124,48.202959 87.65625,47.577828 C 87.499901,46.95296 87.499901,46.562336 87.65625,46.405953 C 87.96865,44.843587 89.843648,44.062338 93.28125,44.062203 C 95.624893,44.218588 98.67176,44.843587 102.42187,45.937203 C 106.17176,47.031085 108.04676,48.671708 108.04687,50.859078 C 107.89051,51.015456 107.73426,51.406081 107.57813,52.030953 C 107.57801,52.656079 107.49988,54.140453 107.34375,56.484078 C 107.18738,58.827948 107.18738,60.312322 107.34375,60.937203 L 107.34375,61.640328 L 107.34375,61.640328 M 127.26563,131.95282 C 141.79672,128.67163 150.23421,126.32788 152.57813,124.92158 C 154.92171,123.51538 157.10921,122.57788 159.14063,122.10908 C 159.2967,122.10913 160.78108,122.49976 163.59375,123.28095 C 166.40607,124.06226 169.99982,125.781 174.375,128.4372 C 178.74981,131.0935 180.85918,133.35912 180.70313,135.23408 C 180.54668,135.54662 180.46856,135.85912 180.46875,136.17158 L 178.82813,138.98408 C 177.89044,140.54661 177.18731,142.73411 176.71875,145.54658 C 176.40606,148.35911 176.24981,152.34348 176.25,157.4997 C 176.09356,162.49972 176.09356,168.28096 176.25,174.84345 C 176.56231,181.40595 176.71856,185.85907 176.71875,188.20282 C 176.56231,194.45281 176.01544,198.90593 175.07813,201.5622 C 174.14044,204.21842 172.49982,207.18717 170.15625,210.46845 C 167.96857,213.90592 165.78107,215.46841 163.59375,215.15595 C 162.81233,215.15591 162.18733,214.92154 161.71875,214.45282 C 161.40608,213.98404 161.1717,213.20279 161.01563,212.10908 L 158.20313,202.4997 C 156.79671,197.96843 154.84358,193.28094 152.34375,188.4372 L 112.73437,190.78095 C 112.578,194.06219 112.10925,197.18718 111.32813,200.15595 C 110.703,203.28093 109.1405,204.92155 106.64063,205.07782 C 105.23426,205.23405 103.82801,203.98405 102.42187,201.32782 C 101.01551,198.67156 100.23426,196.09343 100.07813,193.59345 C 99.92176,191.24969 99.92176,189.68719 100.07813,188.90595 C 100.07801,188.59344 100.23426,187.03094 100.54687,184.21845 C 100.85926,181.40595 101.01551,177.10908 101.01563,171.32782 C 100.70301,162.26534 100.07801,155.46847 99.14063,150.9372 C 98.35926,146.40598 97.343641,142.89036 96.09375,140.39032 C 94.999893,137.89037 94.531144,136.24974 94.6875,135.46845 C 94.687394,133.74975 95.859267,132.81225 98.20313,132.65595 C 98.67176,132.656 99.99989,132.89037 102.1875,133.35908 C 104.37488,133.67162 108.35925,133.82787 114.14063,133.82782 C 117.2655,129.14037 119.45299,125.07788 120.70313,121.64032 C 121.95299,118.04664 122.57799,115.62476 122.57813,114.3747 C 122.42174,113.74977 122.10924,112.73414 121.64063,111.32782 C 121.17174,109.92164 121.01549,109.14039 121.17187,108.98408 C 121.17174,107.2654 122.65612,106.3279 125.625,106.17158 C 129.21861,106.17165 133.20298,107.03102 137.57813,108.7497 C 141.95297,110.46852 144.14047,112.03102 144.14063,113.4372 C 143.98422,114.37476 142.18735,116.17164 138.75,118.82782 C 135.31235,121.48413 131.48423,125.85913 127.26563,131.95282 M 161.01563,185.39032 C 161.4842,181.32782 161.7967,178.35908 161.95313,176.48408 C 162.1092,174.60908 162.18733,172.89033 162.1875,171.32782 C 162.34358,169.60908 162.34358,166.95284 162.1875,163.35908 C 161.87483,157.4216 161.4842,152.03098 161.01563,147.1872 C 160.5467,142.18724 159.9217,139.06224 159.14063,137.8122 C 158.51545,136.40599 156.64046,135.70287 153.51563,135.70282 C 151.95296,135.85912 150.62484,135.93724 149.53125,135.9372 L 129.375,139.6872 L 110.85937,142.96845 L 112.03125,157.03095 C 115.93737,156.24972 120.78112,155.07785 126.5625,153.51532 C 132.34361,151.7966 135.85923,150.93723 137.10937,150.9372 C 141.17172,151.09348 143.74984,151.87473 144.84375,153.28095 C 145.93734,154.68722 146.56234,155.62472 146.71875,156.09345 C 147.03109,156.56222 147.18734,156.95285 147.1875,157.26532 C 147.34359,157.4216 147.34359,157.65597 147.1875,157.96845 C 146.09359,159.99972 143.20297,161.79659 138.51563,163.35908 C 133.82798,164.76534 128.51548,165.46846 122.57813,165.46845 C 120.70299,165.62471 117.34362,165.15596 112.5,164.0622 L 112.73437,180.9372 C 117.578,180.46845 124.53111,179.60907 133.59375,178.35908 C 142.81235,177.10908 148.59359,176.8747 150.9375,177.65595 C 153.43733,178.4372 156.79671,181.01532 161.01563,185.39032 M 154.92187,54.140328 C 160.39045,50.546707 165.07795,47.187335 168.98437,44.062203 C 172.89044,40.937341 175.46856,38.515469 176.71875,36.796578 L 178.82813,33.515328 C 180.07793,31.952975 181.17168,31.093601 182.10937,30.937203 C 184.14043,30.937351 186.64043,32.734224 189.60937,36.327828 C 192.73417,39.765467 194.45292,41.87484 194.76563,42.655953 L 195,44.999703 C 194.99979,45.781086 194.99979,46.249836 195,46.405953 C 194.68729,47.031085 194.14042,47.577959 193.35937,48.046578 C 192.57792,48.359209 191.8748,48.593583 191.25,48.749703 C 190.78105,48.749833 188.98417,49.062333 185.85937,49.687203 C 182.73418,50.156082 177.10919,52.109205 168.98437,55.546578 C 160.8592,58.827948 155.93733,60.781071 154.21875,61.405953 C 154.06233,65.312317 153.90608,68.359189 153.75,70.546578 C 153.74983,72.734184 153.67171,74.452933 153.51563,75.702828 C 153.51546,76.79668 153.74983,78.202929 154.21875,79.921578 C 154.99983,84.452923 156.95296,87.343543 160.07813,88.593453 C 163.3592,89.687293 167.89045,90.234163 173.67187,90.234083 C 182.89043,90.390413 188.98417,88.827923 191.95313,85.546583 C 195.07792,82.265425 197.26542,77.26543 198.51563,70.546578 L 200.15625,61.640328 C 200.31229,60.234197 200.93729,59.531073 202.03125,59.530953 C 202.49979,59.687322 202.96854,60.077947 203.4375,60.702828 C 203.90603,61.171696 204.14041,61.71857 204.14063,62.343453 L 204.14063,71.249703 C 204.14041,75.468557 204.53103,78.984178 205.3125,81.796578 C 206.24978,84.452923 207.03103,86.484173 207.65625,87.890323 C 208.43728,89.140413 208.8279,89.999793 208.82813,90.468453 C 208.98415,90.937293 209.06228,91.327913 209.0625,91.640323 C 208.74978,94.296663 205.70291,97.031033 199.92187,99.843453 C 194.29667,102.49978 186.09355,103.8279 175.3125,103.82782 C 157.34358,103.98415 147.49984,99.921653 145.78125,91.640323 C 144.06234,83.359174 143.28109,76.562305 143.4375,71.249703 C 143.43734,67.656064 143.74984,60.702946 144.375,50.390328 C 144.99984,39.921717 145.31234,32.812349 145.3125,29.062203 C 145.15609,24.062358 144.84359,20.781111 144.375,19.218453 C 143.90609,17.656114 143.20297,15.781116 142.26563,13.593453 C 141.32797,11.406121 140.7811,10.156122 140.625,9.8434534 C 140.62485,9.3748734 140.7811,8.9842484 141.09375,8.6715784 C 141.4061,8.2029994 142.42172,7.8123744 144.14063,7.4997034 C 147.26547,7.1873754 150.70296,8.2811244 154.45313,10.780953 C 158.3592,13.281119 160.5467,15.077992 161.01563,16.171578 C 161.4842,17.26549 161.71858,17.890489 161.71875,18.046578 C 161.87483,18.046739 161.7967,18.437364 161.48437,19.218453 C 161.01545,20.468612 160.31233,21.71861 159.375,22.968453 C 158.43733,24.062358 157.57796,26.562355 156.79687,30.468453 C 156.17171,34.218598 155.78108,37.968594 155.625,41.718453 L 154.92187,54.140328 L 154.92187,54.140328 M 256.875,86.249703 L 275.625,81.796578 C 273.5937,67.26544 272.10933,57.499825 271.17187,52.499703 C 270.39058,47.343585 269.84371,43.906088 269.53125,42.187203 L 267.65625,36.093453 C 267.03121,34.374848 266.40621,32.890474 265.78125,31.640328 C 265.31246,30.390477 264.92184,29.062353 264.60937,27.655953 C 264.29684,26.249856 265.31246,25.546732 267.65625,25.546578 C 268.12496,25.702981 269.29683,26.249856 271.17187,27.187203 C 273.04683,28.124854 274.8437,28.593603 276.5625,28.593453 C 278.74995,28.906103 283.82807,28.046729 291.79687,26.015328 C 299.76555,23.984233 305.2343,22.49986 308.20313,21.562203 C 311.32804,20.468612 313.35929,19.531113 314.29687,18.749703 L 316.40625,16.874703 C 317.18741,16.249866 318.04679,15.781116 318.98437,15.468453 C 321.48428,14.843617 325.07803,16.093616 329.76563,19.218453 C 334.45302,22.34361 336.79677,24.609232 336.79687,26.015328 C 336.64052,26.64048 335.85927,27.890479 334.45313,29.765328 C 333.04677,31.484226 332.03115,32.812349 331.40625,33.749703 C 330.9374,34.687347 329.9999,39.218593 328.59375,47.343453 L 326.01563,58.593453 L 323.67187,70.312203 C 328.67177,70.156062 333.59364,72.34356 338.4375,76.874703 C 343.43738,81.406051 345.93738,84.374798 345.9375,85.780953 C 346.09363,87.031043 345.85926,87.968543 345.23437,88.593453 C 344.60926,89.218543 343.74988,89.531043 342.65625,89.530953 L 337.73437,89.765323 C 332.89052,90.234163 328.67177,91.952913 325.07813,94.921583 L 322.5,97.030953 L 320.15625,99.140323 C 319.37491,99.609153 318.67178,99.765403 318.04687,99.609083 C 317.42179,99.296653 317.10929,98.984163 317.10937,98.671583 C 317.10929,98.202913 317.42179,97.031033 318.04687,95.155953 L 319.92187,89.530953 L 321.09375,84.609083 C 321.40616,83.515424 321.56241,82.734174 321.5625,82.265328 C 321.40616,80.546677 319.53116,79.765427 315.9375,79.921578 C 313.90616,80.077927 309.76554,80.781051 303.51563,82.030953 L 295.3125,83.905953 L 258.04687,92.577823 C 258.04685,94.452913 258.04685,96.093533 258.04687,97.499703 C 258.2031,98.906033 258.28122,100.46853 258.28125,102.1872 C 257.96872,106.87477 256.9531,113.04664 255.23437,120.70282 C 253.67185,128.20288 251.09373,130.156 247.5,126.5622 C 246.40623,125.62475 245.31248,123.98413 244.21875,121.64032 C 243.28124,119.14038 242.73436,117.49976 242.57813,116.71845 C 242.42186,115.78101 242.34374,114.45289 242.34375,112.73408 C 242.34374,111.64039 242.34374,110.93727 242.34375,110.6247 C 242.49999,110.31227 242.89061,109.37477 243.51563,107.8122 C 244.29686,106.24977 245.07811,103.43728 245.85937,99.374703 C 246.79686,95.156033 247.26561,92.577913 247.26563,91.640323 C 247.42186,90.702913 247.57811,89.374793 247.73437,87.655953 C 247.73436,86.562293 247.65623,85.234173 247.5,83.671578 C 247.34373,81.952925 247.42186,80.468552 247.73437,79.218453 C 248.20311,77.812304 249.21873,77.656054 250.78125,78.749703 C 250.93748,79.062303 252.96873,81.562301 256.875,86.249703 M 281.01563,35.155953 L 281.95313,49.687203 C 287.26557,47.812334 290.78119,46.327961 292.5,45.234078 C 294.37493,44.140463 295.78118,43.593588 296.71875,43.593453 C 298.59368,43.749838 300.78118,44.999837 303.28125,47.343453 C 305.78117,49.531083 307.03117,51.171706 307.03125,52.265328 C 306.87492,53.202954 306.24992,54.296703 305.15625,55.546578 C 304.21867,56.7967 303.6718,57.734199 303.51563,58.359078 C 303.3593,58.827948 302.96868,60.702946 302.34375,63.984078 L 301.875,67.499703 L 300.70313,76.171578 L 313.125,73.359078 C 313.74991,68.359189 314.37491,63.046694 315,57.421578 C 315.78116,51.796705 316.24991,48.046709 316.40625,46.171578 L 316.875,36.796578 C 317.03116,33.671723 316.95304,31.327976 316.64063,29.765328 C 316.01554,27.577979 314.06241,26.718605 310.78125,27.187203 C 309.99992,27.343605 307.89055,28.046729 304.45313,29.296578 C 301.1718,30.390477 293.35931,32.3436 281.01563,35.155953 M 283.35937,80.155953 L 293.20313,77.577828 C 293.20306,70.234187 293.20306,65.312317 293.20313,62.812203 C 293.35931,60.156072 293.35931,57.890449 293.20313,56.015328 C 293.20306,54.140453 292.57806,53.281079 291.32813,53.437203 C 290.23431,53.437329 287.10932,54.296703 281.95313,56.015328 L 283.35937,80.155953 M 281.95313,108.51532 L 280.54687,127.03095 C 284.14057,126.7185 286.71869,126.406 288.28125,126.09345 C 289.99994,125.781 291.64056,125.62475 293.20313,125.6247 C 294.92181,125.4685 295.85931,126.0935 296.01563,127.4997 C 296.17181,128.906 295.70306,130.31225 294.60937,131.71845 C 293.67181,132.9685 291.40619,133.74975 287.8125,134.0622 C 284.21869,134.37474 281.64057,134.37474 280.07813,134.0622 L 278.67187,149.29658 C 287.89057,147.89036 292.73431,147.18723 293.20313,147.1872 C 295.70306,147.65598 296.95306,148.51536 296.95313,149.76532 C 297.10931,151.01535 296.87493,152.03098 296.25,152.8122 C 294.21868,154.99972 290.46869,156.24972 285,156.5622 C 282.9687,156.71847 280.62495,156.64035 277.96875,156.32782 C 277.3437,159.14034 276.95308,161.17159 276.79687,162.42158 L 275.625,169.6872 L 274.21875,175.78095 L 273.04687,181.40595 C 271.95308,186.40594 270.54683,191.01531 268.82813,195.23408 C 267.10934,199.4528 265.85934,201.56218 265.07813,201.5622 C 264.45309,201.71843 263.82809,201.40593 263.20313,200.6247 C 262.26559,199.84343 261.56247,198.04656 261.09375,195.23408 C 260.62497,192.57781 260.31247,190.23406 260.15625,188.20282 C 260.15622,186.32782 260.31247,184.68719 260.625,183.28095 C 260.78122,182.34345 262.03122,178.7497 264.375,172.4997 C 266.71871,166.24971 268.82808,155.93722 270.70313,141.5622 C 272.57808,127.031 273.51558,118.12476 273.51563,114.84345 C 273.35933,114.06227 273.20308,112.73414 273.04687,110.85908 C 273.04683,108.8279 272.89058,107.18727 272.57813,105.9372 C 272.26558,104.68727 272.10933,103.59353 272.10937,102.65595 C 272.26558,101.56228 273.12496,101.0154 274.6875,101.01532 L 279.14063,101.2497 C 281.79682,101.40603 283.74994,101.40603 285,101.2497 C 286.09369,101.24978 288.04682,101.0154 290.85937,100.54658 C 293.67181,99.921653 296.09368,98.984163 298.125,97.734083 C 300.15618,96.484163 301.71868,95.781033 302.8125,95.624703 C 304.53117,95.468533 306.7968,96.171663 309.60937,97.734083 C 312.57804,99.296653 314.53116,100.54665 315.46875,101.48408 C 316.56241,102.2654 317.10929,103.12478 317.10937,104.0622 C 317.26554,104.99977 316.87491,106.3279 315.9375,108.04658 C 314.53116,110.23414 313.74991,111.95289 313.59375,113.20282 C 313.43741,114.29664 313.28116,116.09351 313.125,118.59345 L 312.65625,124.6872 C 312.49992,127.3435 312.57804,130.85912 312.89063,135.23408 C 312.89054,137.57787 313.20304,142.65599 313.82813,150.46845 C 314.45304,158.28097 314.92179,163.28097 315.23437,165.46845 L 315.9375,172.96845 C 316.09366,175.6247 316.17179,177.96845 316.17187,179.9997 C 316.32804,182.03095 316.40616,183.98407 316.40625,185.85908 C 316.24991,187.26532 315.93741,189.37469 315.46875,192.1872 C 315.15616,195.15593 314.84366,197.10906 314.53125,198.04658 C 314.37491,199.1403 313.51554,202.03093 311.95313,206.71845 C 310.54679,211.40592 308.82804,213.67154 306.79687,213.51532 C 305.8593,213.51529 304.99992,212.96842 304.21875,211.8747 C 303.59367,210.78092 302.81243,209.06217 301.875,206.71845 C 301.09368,204.53092 299.53118,201.56218 297.1875,197.8122 C 294.99993,194.06219 293.74993,191.87469 293.4375,191.2497 L 290.625,187.73408 L 288.98437,185.39032 L 287.8125,183.98408 C 287.18744,183.20282 287.10932,182.4997 287.57813,181.8747 C 288.20307,181.40595 289.53119,181.5622 291.5625,182.34345 L 294.14063,183.51532 C 297.10931,184.92157 299.21868,185.54657 300.46875,185.39032 C 302.81243,185.23407 304.06242,181.79657 304.21875,175.07782 L 304.21875,166.8747 C 304.21867,163.59347 304.21867,161.71847 304.21875,161.2497 C 304.06242,159.21847 303.82805,155.5466 303.51563,150.23408 C 303.20305,144.92161 302.96868,139.60911 302.8125,134.29658 C 302.65618,128.82788 302.4218,123.67163 302.10937,118.82782 C 301.7968,113.82789 301.32805,110.31227 300.70313,108.28095 C 300.07805,106.09352 298.51555,105.15602 296.01563,105.46845 L 290.39063,106.8747 L 281.95313,108.51532 L 281.95313,108.51532 M 368.4375,187.96845 L 390.46875,184.92158 C 391.87484,182.10907 393.20296,179.3747 394.45313,176.71845 C 395.70296,173.90596 396.64046,171.64033 397.26563,169.92158 C 398.04671,168.04659 398.12483,166.17159 397.5,164.29658 C 396.87483,162.26534 396.64046,161.17159 396.79687,161.01532 L 397.5,158.90595 L 367.96875,163.1247 C 367.65611,164.99971 367.10924,166.40596 366.32813,167.34345 C 365.54674,168.28096 364.37486,168.12471 362.8125,166.8747 C 361.40612,165.93721 359.53112,163.51534 357.1875,159.60908 L 353.4375,153.28095 L 349.45313,146.95282 C 347.89051,144.60911 346.87488,143.20286 346.40625,142.73408 C 345.93738,142.10911 345.07801,141.09349 343.82813,139.6872 C 342.57801,138.12474 341.87489,136.95287 341.71875,136.17158 C 341.71864,135.23412 341.95301,134.45287 342.42187,133.82782 C 343.04676,133.20287 346.64051,132.9685 353.20313,133.1247 C 359.76549,133.43725 368.90611,132.10912 380.625,129.14032 C 392.49984,126.17163 399.76545,123.98413 402.42187,122.57782 C 405.07795,121.01538 406.64045,120.15601 407.10937,119.9997 C 410.23419,119.21851 414.68731,120.85913 420.46875,124.92158 C 426.40605,128.82788 429.3748,131.406 429.375,132.65595 C 429.21855,133.43725 428.51542,134.37474 427.26563,135.46845 L 423.28125,138.51532 C 421.09356,140.23411 419.06231,142.18724 417.1875,144.3747 C 415.46856,146.40598 414.60919,147.81223 414.60937,148.59345 C 414.45294,148.90598 414.53106,149.6091 414.84375,150.70282 C 415.15606,151.7966 415.23419,152.65598 415.07813,153.28095 C 414.29669,155.46847 409.76544,157.03097 401.48437,157.96845 C 404.14045,159.53097 406.32795,160.93722 408.04687,162.1872 C 409.92169,163.43722 411.48419,164.76534 412.73437,166.17158 C 414.14044,167.42159 413.90606,168.90596 412.03125,170.6247 L 409.21875,172.4997 L 406.40625,174.84345 C 404.68732,176.2497 401.7967,179.29657 397.73437,183.98408 C 403.51545,183.20282 409.99982,182.26532 417.1875,181.17158 C 424.3748,180.07782 428.7498,179.45282 430.3125,179.29658 C 438.12479,179.14032 444.53103,180.70282 449.53125,183.98408 C 454.53102,187.42157 457.03102,190.07781 457.03125,191.95282 C 456.87477,194.29656 455.31227,195.54656 452.34375,195.70282 C 451.40603,195.85906 447.81228,195.39031 441.5625,194.29658 C 435.46854,193.35906 426.2498,192.96844 413.90625,193.1247 C 393.74983,193.59344 379.45297,194.45281 371.01563,195.70282 C 362.57799,197.10906 355.23425,198.35906 348.98437,199.45282 C 342.73426,200.7028 338.90614,201.24968 337.5,201.09345 C 335.31239,201.09343 332.73427,200.15593 329.76563,198.28095 C 326.79678,196.56218 324.9999,195.46843 324.375,194.9997 C 323.7499,194.53093 323.35928,193.98406 323.20313,193.35908 C 323.20303,192.89031 323.35928,192.49969 323.67187,192.1872 C 323.98428,191.87469 325.9374,191.56219 329.53125,191.2497 L 337.96875,190.78095 C 341.71864,190.62469 349.84363,189.84344 362.34375,188.4372 C 360.46862,185.78094 359.14049,183.1247 358.35937,180.46845 L 357.1875,176.95282 L 355.78125,172.73408 C 355.31237,171.64033 354.99987,170.23408 354.84375,168.51532 C 354.68737,166.64034 355.54675,165.85909 357.42187,166.17158 C 358.35924,166.48409 360.78112,168.04659 364.6875,170.85908 C 368.74986,173.51533 370.62486,177.1872 370.3125,181.8747 C 370.15611,183.59345 369.53111,185.62469 368.4375,187.96845 M 360.23437,139.21845 L 366.09375,155.85908 C 380.7811,153.3591 389.60921,151.7966 392.57813,151.17158 C 395.54671,150.39035 397.34358,149.6091 397.96875,148.82782 C 398.74983,148.04661 399.68733,146.64036 400.78125,144.60908 L 402.65625,141.09345 C 402.65608,140.78099 402.89045,139.60911 403.35937,137.57782 C 403.9842,135.54662 404.2967,134.21849 404.29687,133.59345 C 404.14045,131.7185 402.18733,131.0935 398.4375,131.71845 L 392.57813,132.89032 C 374.60923,136.48412 363.82799,138.59349 360.23437,139.21845 M 378.98437,38.437203 L 397.26563,34.218453 C 397.42171,29.843602 397.57796,26.327981 397.73437,23.671578 C 398.04671,20.859236 398.20296,18.984238 398.20313,18.046578 C 398.3592,17.10924 398.43733,16.249866 398.4375,15.468453 C 398.28108,14.687367 398.12483,13.749868 397.96875,12.655953 C 397.81233,11.406121 397.49983,10.156122 397.03125,8.9059534 L 395.15625,5.3903284 C 394.68733,4.6092524 394.45296,3.8280034 394.45313,3.0465784 C 394.60921,2.1092554 395.07796,1.4061314 395.85937,0.93720341 C 396.64046,0.31238241 397.26546,-0.00011759271 397.73437,-0.00029659271 C 400.07795,0.46863241 402.96858,1.5623804 406.40625,3.2809534 C 409.99982,4.8436274 412.34357,6.0936264 413.4375,7.0309534 C 414.53106,7.8123744 415.07794,8.6717484 415.07813,9.6090784 C 415.23419,10.546747 414.92169,11.640495 414.14063,12.890328 C 412.89044,15.077992 412.10919,17.031115 411.79687,18.749703 L 411.09375,23.202828 L 410.15625,27.187203 L 409.6875,31.640328 C 411.71857,31.171726 413.74981,30.781101 415.78125,30.468453 C 417.96856,29.999852 420.15606,29.296728 422.34375,28.359078 C 424.6873,27.26548 426.48418,26.718605 427.73437,26.718453 C 430.70292,26.874855 434.76542,28.515479 439.92187,31.640328 C 445.23416,34.609222 447.89041,36.874845 447.89063,38.437203 C 447.73416,39.218593 446.95291,40.702966 445.54687,42.890328 C 444.14041,44.921712 443.12479,46.484211 442.5,47.577828 C 441.87479,48.671708 441.32791,50.156082 440.85937,52.030953 C 440.39041,53.906078 439.53104,57.26545 438.28125,62.109078 C 437.03104,66.95294 435.31229,72.421685 433.125,78.515328 C 430.9373,84.609173 428.67167,88.671673 426.32813,90.702823 C 424.14043,92.734163 422.81231,93.749793 422.34375,93.749703 C 420.62481,93.906043 418.51543,91.171663 416.01563,85.546583 C 402.1092,87.109173 383.74984,89.609163 360.9375,93.046583 C 360.62487,94.296663 360.31237,95.468533 360,96.562203 C 359.84362,97.499783 359.21862,98.046663 358.125,98.202823 C 357.18737,98.202913 356.24987,97.656033 355.3125,96.562203 C 354.21862,95.624783 353.12488,93.281043 352.03125,89.530953 C 351.09363,85.781043 350.15613,82.421675 349.21875,79.452828 C 348.43738,76.327931 347.96863,74.218558 347.8125,73.124703 L 345,63.749703 C 343.90613,60.156072 343.20301,58.046699 342.89063,57.421578 C 342.73426,56.7967 342.26551,55.546702 341.48437,53.671578 C 340.70301,51.796705 339.99989,50.312332 339.375,49.218453 C 338.74989,48.124834 338.35926,47.42171 338.20313,47.109078 C 338.04677,46.64046 337.96864,46.093586 337.96875,45.468453 C 338.12489,44.843587 338.43739,44.296713 338.90625,43.827828 C 339.37489,43.359214 340.46864,43.124839 342.1875,43.124703 L 346.17187,43.124703 L 351.79687,43.359078 C 354.29675,43.359214 359.45299,42.421715 367.26563,40.546578 C 366.32799,36.015471 365.39049,32.577974 364.45313,30.234078 C 363.67174,27.890479 362.73424,25.937356 361.64063,24.374703 C 360.70299,22.656109 360.15612,21.640485 360,21.327828 C 359.84362,20.859236 359.68737,20.077987 359.53125,18.984078 C 359.53112,17.734239 360.54674,17.031115 362.57813,16.874703 C 364.92174,16.874865 368.20299,17.890489 372.42187,19.921578 C 376.64048,21.796735 378.82797,23.671733 378.98437,25.546578 L 378.51563,28.359078 C 378.35922,28.827978 378.35922,29.843602 378.51563,31.405953 L 378.51563,35.155953 L 378.98437,38.437203 L 378.98437,38.437203 M 359.76563,85.077823 L 373.125,82.499703 L 371.71875,68.202828 C 365.62486,67.26544 361.87487,66.562316 360.46875,66.093453 C 359.21862,65.468567 358.51549,64.687317 358.35937,63.749703 C 358.35924,62.812319 359.76549,62.03107 362.57813,61.405953 L 365.85937,60.702828 L 368.67187,59.999703 L 370.54687,59.530953 L 368.67187,45.937203 L 354.14063,49.452828 L 359.76563,85.077823 M 380.15625,57.421578 L 396.09375,53.437203 L 397.03125,40.546578 L 378.98437,44.062203 L 380.15625,57.421578 M 380.85937,67.265328 L 381.5625,80.624703 L 394.45313,78.515328 L 395.39063,64.452828 L 380.85937,67.265328 M 403.35937,77.343453 C 408.0467,76.562305 411.48419,76.327931 413.67187,76.640328 L 415.78125,77.577828 L 418.35937,78.515328 C 418.82793,76.64043 419.53106,74.374808 420.46875,71.718453 C 421.40606,69.062313 422.42168,65.781066 423.51563,61.874703 C 424.60918,57.968574 425.3123,53.671703 425.625,48.984078 C 425.9373,44.296713 426.01543,41.484216 425.85937,40.546578 C 425.54668,39.609217 424.92168,38.827968 423.98437,38.202828 C 423.04668,37.577969 417.89044,37.734219 408.51563,38.671578 L 407.10937,51.562203 C 411.48419,50.781081 414.14044,51.093581 415.07813,52.499703 C 416.17169,53.749828 416.71856,55.234202 416.71875,56.952828 C 416.87481,58.671698 413.04669,60.546697 405.23437,62.577828 L 403.35937,77.343453 M 368.90625,108.28095 C 393.90608,102.03103 407.57795,98.984163 409.92187,99.140323 C 412.73419,99.452903 414.76544,100.31228 416.01563,101.71845 C 417.42169,102.96853 418.12481,103.98415 418.125,104.76532 C 417.96856,106.17165 416.64044,107.5779 414.14063,108.98408 C 411.79669,110.23414 404.2967,112.18727 391.64063,114.84345 C 378.98422,117.49976 370.85923,118.74976 367.26563,118.59345 C 362.89049,118.59351 359.76549,118.20289 357.89063,117.42158 C 356.17175,116.64039 354.60925,115.78101 353.20313,114.84345 C 351.79675,113.74977 351.953,112.65602 353.67187,111.5622 L 357.1875,110.85908 L 368.90625,108.28095"
       id="text1335" />
  </g>
</svg>
